<svg width="227" height="65" viewBox="0 0 227 65" fill="none" xmlns="http://www.w3.org/2000/svg">
<path d="M37.6389 38.0142C37.5673 38.3626 37.4957 38.7146 37.4241 39.0629C35.6301 39.3616 33.829 39.5606 32.0278 39.6709C33.94 39.1554 35.8127 38.6115 37.6389 38.0142Z" fill="#494949"/>
<path d="M77.7615 3.76152C72.6267 17.8749 62.0562 30.616 47.7903 36.2152C47.7903 36.2152 48.3632 33.4174 48.3668 33.4174C59.9471 26.8264 67.8499 15.0238 71.044 2.36084C72.1719 1.74938 75.2514 0.00387573 75.2514 0.00387573C75.2514 0.00387573 76.8771 2.39995 77.7615 3.76152Z" fill="url(#paint0_linear_45_894)"/>
<path d="M53.4636 8.61067C53.5674 8.09875 53.7286 7.7788 54.3122 7.73614C56.8116 7.54062 59.3074 7.1389 61.7997 7.16023C64.8792 7.18156 66.9166 9.33945 67.3177 12.6101C68.904 9.32167 70.1501 5.88398 71.0417 2.36097C70.9987 2.32898 70.9558 2.30054 70.9128 2.2721C68.4528 0.604802 65.6419 0.156871 62.7557 0.0360013C56.8582 -0.219959 51.1468 0.917642 45.5035 2.46407C45.2027 2.54939 44.8554 3.00443 44.7838 3.34216C44.286 5.75245 35.4666 48.6542 35.4666 48.6542H42.0659C43.9244 48.6542 45.5178 47.2322 45.8938 45.405C45.8974 45.4121 53.0339 10.7188 53.4636 8.61067Z" fill="white"/>
<path d="M75.8216 8.47534C70.565 19.8478 61.7383 29.8409 50.2798 35.1521C68.839 40.4171 81.0531 22.283 75.8216 8.47534Z" fill="white"/>
<path d="M33.1662 17.523C19.6881 4.59348 -3.28988 19.3503 0.394756 36.9334C2.68646 47.8721 14.6105 50.3002 24.2607 47.7192C30.3839 46.0839 29.6534 40.1862 29.6534 40.1862C21.9726 41.9495 7.35581 40.3639 8.55538 34.5373C14.4637 36.1833 23.4694 36.5743 29.7895 33.3499C38.036 29.1408 36.6288 21.3838 33.1662 17.523ZM27.5157 24.8926C25.4567 29.1123 13.6902 29.0768 9.45416 27.8432C12.1111 21.8566 19.0972 18.2802 25.5033 20.8718C27.4369 21.6575 28.2963 23.2786 27.5157 24.8926Z" fill="white"/>
<path d="M117.125 15.326C111.417 13.4667 104.57 12.6135 99.5572 12.6135C86.2904 12.6135 77.9399 24.4694 78.3303 34.8714C78.4806 38.8636 79.8306 47.9253 91.9802 48.967C95.3533 49.2549 98.5725 48.8248 101.391 46.7557C101.412 46.738 101.609 46.5638 101.562 46.8126C101.462 47.3921 101.237 48.6648 101.237 48.6648C101.237 48.6648 107.571 48.6648 110.575 48.6648C111.141 48.6648 111.22 48.2773 111.302 47.8827C113.461 37.3954 115.635 26.9295 117.769 16.4351C117.905 15.7739 117.773 15.5322 117.125 15.326ZM106.83 21.5757C105.691 26.9828 104.588 32.3971 103.439 37.8078C103.338 38.2735 103.095 38.6966 102.737 39.013C100.008 41.4232 96.8286 42.216 93.2765 41.4055C86.4658 39.8519 87.583 30.2641 89.9678 25.639C92.1414 21.4299 97.0542 19.0516 102.057 19.6951C107.063 20.335 106.959 20.9464 106.83 21.5757Z" fill="white"/>
<path d="M226.497 25.2658C225.799 16.9897 219.218 12.6135 211.318 12.6135C194.754 12.6135 189.282 26.3536 189.787 35.9023C190.27 45.0707 198.438 49.3402 206.667 48.5759C214.312 48.1244 220.055 44.6583 223.608 37.8682C225.663 33.9328 226.995 29.7842 226.497 25.2658ZM203.652 40.8153C196.361 39.3258 198.832 29.7522 200.354 26.9295C204.028 20.111 209.034 19.7982 211.881 20.2461C215.64 20.8327 217.775 23.4989 217.563 28.0031C217.245 34.8216 212.135 42.5466 203.652 40.8153Z" fill="white"/>
<path d="M115.728 64.1007L116.963 58.0857C117.149 57.3818 117.819 56.8805 118.553 56.8592C122.256 56.7561 123.523 56.1162 125.374 54.1183C126.789 52.3337 127.86 50.901 129.048 49.2515C129.206 49.0346 129.22 48.6471 129.163 48.3627C127.158 38.2559 122.098 12.6136 122.098 12.6136C122.098 12.6136 131.322 12.5319 131.902 16.2077C133.016 23.2466 135.651 37.4773 135.777 38.039C136.102 37.4809 144.729 22.7774 148.764 15.7278C150.744 12.2688 158.289 12.6136 160.781 12.6136C153.344 24.953 138.899 48.8818 136.647 52.6003C130.796 62.2486 125.647 64.1754 120.254 64.1079C118.786 64.0901 115.728 64.1007 115.728 64.1007Z" fill="white"/>
<path d="M184.072 38.7215C183.549 41.2562 182.6 45.8671 182.568 46.0306C182.514 46.3008 182.4 46.5994 182.038 46.7345C177.057 48.5831 171.74 49.4541 166.902 47.7512C151.247 42.2481 155.451 17.2742 171.801 13.2997C179.829 11.348 187.835 14.1742 188.226 14.2951C188.68 14.4373 188.963 14.8923 188.87 15.3545C188.587 16.7445 187.689 21.1456 187.649 21.3055C183.119 19.8515 178.361 18.7993 173.734 20.4132C164.539 23.627 162.541 39.2903 171.686 41.1247C176.069 42.0063 180.079 40.4635 184.072 38.7215Z" fill="white"/>
<defs>
<linearGradient id="paint0_linear_45_894" x1="62.7759" y1="0.00387573" x2="62.7193" y2="36.2646" gradientUnits="userSpaceOnUse">
<stop offset="0.145833" stop-color="#FF6110"/>
<stop offset="1" stop-color="#494949"/>
</linearGradient>
</defs>
</svg>
