<svg width="50" height="50" viewBox="0 0 50 50" fill="none" xmlns="http://www.w3.org/2000/svg">
<path d="M8.30499 25.967C8.28919 26.0401 8.27339 26.1138 8.25759 26.1868C7.86174 26.2494 7.46432 26.2911 7.06689 26.3142C7.48881 26.2062 7.90204 26.0922 8.30499 25.967Z" fill="#494949"/>
<path d="M17.1581 18.7883C16.0251 21.7461 13.6927 24.4164 10.5449 25.5899C10.5449 25.5899 10.6713 25.0036 10.6721 25.0036C13.2273 23.6222 14.9711 21.1486 15.6759 18.4947C15.9248 18.3666 16.6043 18.0007 16.6043 18.0007C16.6043 18.0007 16.963 18.5029 17.1581 18.7883Z" fill="url(#paint0_linear_2147_978)"/>
<path d="M11.7968 19.8046C11.8197 19.6974 11.8552 19.6303 11.984 19.6214C12.5355 19.5804 13.0862 19.4962 13.6361 19.5007C14.3156 19.5051 14.7652 19.9574 14.8537 20.6428C15.2037 19.9537 15.4787 19.2332 15.6754 18.4948C15.6659 18.4881 15.6564 18.4822 15.6469 18.4762C15.1041 18.1268 14.4839 18.0329 13.8471 18.0076C12.5458 17.9539 11.2856 18.1923 10.0404 18.5164C9.97398 18.5343 9.89734 18.6297 9.88154 18.7005C9.77172 19.2056 7.82568 28.197 7.82568 28.197H9.28185C9.69192 28.197 10.0435 27.899 10.1265 27.516C10.1273 27.5175 11.7019 20.2465 11.7968 19.8046Z" fill="black"/>
<path d="M16.7301 19.7764C15.5702 22.1598 13.6226 24.2542 11.0942 25.3673C15.1894 26.4707 17.8844 22.6702 16.7301 19.7764Z" fill="black"/>
<path d="M7.31816 21.6726C4.3442 18.9628 -0.725917 22.0555 0.0871034 25.7406C0.592772 28.0332 3.22383 28.542 5.35317 28.0011C6.70425 27.6584 6.54307 26.4223 6.54307 26.4223C4.84829 26.7919 1.62307 26.4596 1.88776 25.2384C3.19143 25.5834 5.17855 25.6654 6.57309 24.9896C8.39271 24.1074 8.0822 22.4817 7.31816 21.6726ZM6.07137 23.2171C5.61706 24.1015 3.02077 24.094 2.08607 23.8355C2.67233 22.5808 4.21383 21.8313 5.62734 22.3744C6.05399 22.5391 6.24362 22.8788 6.07137 23.2171Z" fill="black"/>
<path d="M25.8437 21.212C24.5842 20.8224 23.0736 20.6436 21.9674 20.6436C19.0401 20.6436 17.1975 23.1283 17.2837 25.3084C17.3168 26.1451 17.6147 28.0442 20.2955 28.2625C21.0398 28.3229 21.7501 28.2327 22.3719 27.7991C22.3767 27.7954 22.4201 27.7589 22.4099 27.811C22.3877 27.9325 22.338 28.1992 22.338 28.1992C22.338 28.1992 23.7357 28.1992 24.3986 28.1992C24.5234 28.1992 24.5408 28.118 24.559 28.0353C25.0354 25.8374 25.515 23.6439 25.9859 21.4445C26.0159 21.3059 25.9867 21.2552 25.8437 21.212ZM23.5721 22.5218C23.3209 23.6551 23.0775 24.7898 22.8239 25.9238C22.8018 26.0214 22.748 26.1101 22.669 26.1764C22.067 26.6815 21.3653 26.8477 20.5816 26.6778C19.0788 26.3522 19.3253 24.3428 19.8515 23.3735C20.3311 22.4913 21.4151 21.9929 22.5189 22.1277C23.6235 22.2618 23.6006 22.39 23.5721 22.5218Z" fill="black"/>
<path d="M49.977 23.2952C49.823 21.5607 48.3708 20.6436 46.6278 20.6436C42.9727 20.6436 41.7654 23.5232 41.8768 25.5244C41.9835 27.4459 43.7858 28.3408 45.6014 28.1806C47.2883 28.086 48.5556 27.3595 49.3394 25.9365C49.793 25.1117 50.0869 24.2422 49.977 23.2952ZM44.9361 26.5541C43.3275 26.2419 43.8727 24.2355 44.2085 23.6439C45.0191 22.2149 46.1237 22.1493 46.7518 22.2432C47.5814 22.3661 48.0523 22.9249 48.0057 23.8689C47.9354 25.2979 46.8079 26.917 44.9361 26.5541Z" fill="black"/>
<path d="M25.5356 31.4343L25.8082 30.1737C25.8493 30.0261 25.9971 29.9211 26.159 29.9166C26.976 29.895 27.2557 29.7609 27.6642 29.3422C27.9763 28.9682 28.2125 28.6679 28.4748 28.3222C28.5096 28.2767 28.5128 28.1955 28.5001 28.1359C28.0577 26.0177 26.9412 20.6436 26.9412 20.6436C26.9412 20.6436 28.9766 20.6265 29.1046 21.3969C29.3503 22.8721 29.9318 25.8545 29.9595 25.9723C30.0314 25.8553 31.9347 22.7737 32.8252 21.2963C33.2621 20.5713 34.9269 20.6436 35.4768 20.6436C33.8357 23.2297 30.6484 28.2447 30.1514 29.024C28.8604 31.0461 27.7242 31.4499 26.5343 31.4358C26.2104 31.4321 25.5356 31.4343 25.5356 31.4343Z" fill="black"/>
<path d="M40.6158 26.1153C40.5005 26.6465 40.2911 27.6129 40.284 27.6471C40.2721 27.7038 40.2469 27.7664 40.1671 27.7947C39.068 28.1821 37.8947 28.3646 36.8273 28.0078C33.3729 26.8544 34.3005 21.6204 37.9081 20.7874C39.6796 20.3783 41.4462 20.9707 41.5324 20.996C41.6327 21.0258 41.6951 21.1212 41.6746 21.218C41.6122 21.5093 41.4138 22.4317 41.4051 22.4653C40.4057 22.1605 39.3556 21.94 38.3348 22.2782C36.3058 22.9518 35.8649 26.2345 37.8829 26.619C38.8499 26.8037 39.7349 26.4804 40.6158 26.1153Z" fill="black"/>
<defs>
<linearGradient id="paint0_linear_2147_978" x1="13.8515" y1="18.0007" x2="13.8403" y2="25.6003" gradientUnits="userSpaceOnUse">
<stop offset="0.145833" stop-color="#FF6110"/>
<stop offset="1" stop-color="#494949"/>
</linearGradient>
</defs>
</svg>
